<mxfile host="app.diagrams.net" agent="Mozilla/5.0 (Windows NT 10.0; Win64; x64) AppleWebKit/537.36 (KHTML, like Gecko) Chrome/131.0.0.0 Safari/537.36" version="25.0.3">
  <diagram name="Page-1" id="CFdCsLWMg9VAJXrINnpR">
    <mxGraphModel dx="2161" dy="656" grid="1" gridSize="10" guides="1" tooltips="1" connect="1" arrows="1" fold="1" page="1" pageScale="1" pageWidth="850" pageHeight="1100" math="0" shadow="0">
      <root>
        <mxCell id="0" />
        <mxCell id="1" parent="0" />
        <mxCell id="9oglRaQjme_YFXIsmbRb-5" style="edgeStyle=orthogonalEdgeStyle;rounded=0;orthogonalLoop=1;jettySize=auto;html=1;exitX=0.5;exitY=1;exitDx=0;exitDy=0;exitPerimeter=0;" edge="1" parent="1" source="9oglRaQjme_YFXIsmbRb-1">
          <mxGeometry relative="1" as="geometry">
            <mxPoint x="149" y="290" as="targetPoint" />
          </mxGeometry>
        </mxCell>
        <mxCell id="9oglRaQjme_YFXIsmbRb-8" style="edgeStyle=orthogonalEdgeStyle;rounded=0;orthogonalLoop=1;jettySize=auto;html=1;exitX=0.88;exitY=0.1;exitDx=0;exitDy=0;exitPerimeter=0;" edge="1" parent="1" source="9oglRaQjme_YFXIsmbRb-1" target="9oglRaQjme_YFXIsmbRb-4">
          <mxGeometry relative="1" as="geometry" />
        </mxCell>
        <mxCell id="9oglRaQjme_YFXIsmbRb-1" value="" style="shape=mxgraph.cisco.routers.10700;sketch=0;html=1;pointerEvents=1;dashed=0;fillColor=#036897;strokeColor=#ffffff;strokeWidth=2;verticalLabelPosition=bottom;verticalAlign=top;align=center;outlineConnect=0;" vertex="1" parent="1">
          <mxGeometry x="110" y="90" width="78" height="53" as="geometry" />
        </mxCell>
        <mxCell id="9oglRaQjme_YFXIsmbRb-14" style="edgeStyle=orthogonalEdgeStyle;rounded=0;orthogonalLoop=1;jettySize=auto;html=1;exitX=0.5;exitY=1;exitDx=0;exitDy=0;exitPerimeter=0;" edge="1" parent="1" source="9oglRaQjme_YFXIsmbRb-2" target="9oglRaQjme_YFXIsmbRb-13">
          <mxGeometry relative="1" as="geometry">
            <Array as="points">
              <mxPoint x="149" y="340" />
              <mxPoint x="373" y="340" />
              <mxPoint x="373" y="345" />
            </Array>
          </mxGeometry>
        </mxCell>
        <mxCell id="9oglRaQjme_YFXIsmbRb-18" style="edgeStyle=orthogonalEdgeStyle;rounded=0;orthogonalLoop=1;jettySize=auto;html=1;exitX=0.5;exitY=1;exitDx=0;exitDy=0;exitPerimeter=0;" edge="1" parent="1" source="9oglRaQjme_YFXIsmbRb-2">
          <mxGeometry relative="1" as="geometry">
            <mxPoint x="149" y="470" as="targetPoint" />
          </mxGeometry>
        </mxCell>
        <mxCell id="9oglRaQjme_YFXIsmbRb-2" value="" style="shape=mxgraph.cisco.routers.10700;sketch=0;html=1;pointerEvents=1;dashed=0;fillColor=#036897;strokeColor=#ffffff;strokeWidth=2;verticalLabelPosition=bottom;verticalAlign=top;align=center;outlineConnect=0;" vertex="1" parent="1">
          <mxGeometry x="110" y="300" width="78" height="53" as="geometry" />
        </mxCell>
        <mxCell id="9oglRaQjme_YFXIsmbRb-3" value="" style="shape=mxgraph.cisco.routers.10700;sketch=0;html=1;pointerEvents=1;dashed=0;fillColor=#036897;strokeColor=#ffffff;strokeWidth=2;verticalLabelPosition=bottom;verticalAlign=top;align=center;outlineConnect=0;" vertex="1" parent="1">
          <mxGeometry x="670" y="90" width="78" height="53" as="geometry" />
        </mxCell>
        <mxCell id="9oglRaQjme_YFXIsmbRb-4" value="" style="html=1;outlineConnect=0;fillColor=#CCCCCC;strokeColor=#6881B3;gradientColor=none;gradientDirection=north;strokeWidth=2;shape=mxgraph.networks.cloud;fontColor=#ffffff;" vertex="1" parent="1">
          <mxGeometry x="350" y="30" width="190" height="130" as="geometry" />
        </mxCell>
        <mxCell id="9oglRaQjme_YFXIsmbRb-6" value="NAT 10.10.10.0/30&lt;div&gt;&lt;br&gt;&lt;/div&gt;" style="whiteSpace=wrap;html=1;" vertex="1" parent="1">
          <mxGeometry x="30" y="170" width="120" height="30" as="geometry" />
        </mxCell>
        <mxCell id="9oglRaQjme_YFXIsmbRb-11" style="edgeStyle=orthogonalEdgeStyle;rounded=0;orthogonalLoop=1;jettySize=auto;html=1;exitX=0.12;exitY=0.9;exitDx=0;exitDy=0;exitPerimeter=0;entryX=0.5;entryY=1;entryDx=0;entryDy=0;entryPerimeter=0;" edge="1" parent="1" source="9oglRaQjme_YFXIsmbRb-3" target="9oglRaQjme_YFXIsmbRb-4">
          <mxGeometry relative="1" as="geometry" />
        </mxCell>
        <mxCell id="9oglRaQjme_YFXIsmbRb-12" value="IPSEC WITH BRANCH&lt;div&gt;&lt;br&gt;&lt;/div&gt;" style="whiteSpace=wrap;html=1;" vertex="1" parent="1">
          <mxGeometry x="380" y="83" width="120" height="60" as="geometry" />
        </mxCell>
        <mxCell id="9oglRaQjme_YFXIsmbRb-13" value="OTHER ISP WAN" style="html=1;outlineConnect=0;fillColor=#CCCCCC;strokeColor=#6881B3;gradientColor=none;gradientDirection=north;strokeWidth=2;shape=mxgraph.networks.cloud;fontColor=#ffffff;" vertex="1" parent="1">
          <mxGeometry x="558" y="290" width="190" height="110" as="geometry" />
        </mxCell>
        <mxCell id="9oglRaQjme_YFXIsmbRb-15" value="second WAN" style="whiteSpace=wrap;html=1;" vertex="1" parent="1">
          <mxGeometry x="320" y="270" width="120" height="60" as="geometry" />
        </mxCell>
        <mxCell id="9oglRaQjme_YFXIsmbRb-16" value="" style="shape=mxgraph.cisco.computers_and_peripherals.pc;sketch=0;html=1;pointerEvents=1;dashed=0;fillColor=#036897;strokeColor=#ffffff;strokeWidth=2;verticalLabelPosition=bottom;verticalAlign=top;align=center;outlineConnect=0;" vertex="1" parent="1">
          <mxGeometry x="406" y="450" width="78" height="70" as="geometry" />
        </mxCell>
        <mxCell id="9oglRaQjme_YFXIsmbRb-21" style="edgeStyle=orthogonalEdgeStyle;rounded=0;orthogonalLoop=1;jettySize=auto;html=1;exitX=1;exitY=0.5;exitDx=0;exitDy=0;exitPerimeter=0;" edge="1" parent="1" source="9oglRaQjme_YFXIsmbRb-17">
          <mxGeometry relative="1" as="geometry">
            <mxPoint x="400" y="518" as="targetPoint" />
          </mxGeometry>
        </mxCell>
        <mxCell id="9oglRaQjme_YFXIsmbRb-17" value="" style="shape=mxgraph.cisco.switches.layer_3_switch;sketch=0;html=1;pointerEvents=1;dashed=0;fillColor=#036897;strokeColor=#ffffff;strokeWidth=2;verticalLabelPosition=bottom;verticalAlign=top;align=center;outlineConnect=0;" vertex="1" parent="1">
          <mxGeometry x="117" y="486" width="64" height="64" as="geometry" />
        </mxCell>
        <mxCell id="9oglRaQjme_YFXIsmbRb-19" value="172.16.0.0/24 VLANs" style="whiteSpace=wrap;html=1;" vertex="1" parent="1">
          <mxGeometry x="20" y="390" width="120" height="60" as="geometry" />
        </mxCell>
        <mxCell id="9oglRaQjme_YFXIsmbRb-20" value="Mangles for internet NAT or Second WAN" style="whiteSpace=wrap;html=1;" vertex="1" parent="1">
          <mxGeometry x="-20" y="296.5" width="120" height="60" as="geometry" />
        </mxCell>
        <mxCell id="9oglRaQjme_YFXIsmbRb-22" value="172.16.13.0/24" style="whiteSpace=wrap;html=1;" vertex="1" parent="1">
          <mxGeometry x="484" y="460" width="120" height="60" as="geometry" />
        </mxCell>
        <mxCell id="9oglRaQjme_YFXIsmbRb-23" value="172.16.28.0/24" style="whiteSpace=wrap;html=1;" vertex="1" parent="1">
          <mxGeometry x="680" y="143" width="120" height="60" as="geometry" />
        </mxCell>
        <mxCell id="9oglRaQjme_YFXIsmbRb-25" value="Router-1" style="whiteSpace=wrap;html=1;" vertex="1" parent="1">
          <mxGeometry x="61" y="30" width="120" height="60" as="geometry" />
        </mxCell>
        <mxCell id="9oglRaQjme_YFXIsmbRb-26" value="Router-2" style="whiteSpace=wrap;html=1;" vertex="1" parent="1">
          <mxGeometry x="160" y="230" width="120" height="60" as="geometry" />
        </mxCell>
        <mxCell id="9oglRaQjme_YFXIsmbRb-27" value="Branch Router" style="whiteSpace=wrap;html=1;" vertex="1" parent="1">
          <mxGeometry x="660" y="30" width="120" height="60" as="geometry" />
        </mxCell>
      </root>
    </mxGraphModel>
  </diagram>
</mxfile>
